<svg width="346" height="146" xmlns="http://www.w3.org/2000/svg" xmlns:xlink="http://www.w3.org/1999/xlink"><defs><path d="M0 0h4.971v145.576H0V0zm12.925 0h4.972v145.576h-4.972V0zm16.903 108.387h4.97v37.531h-4.97v-37.531zm14.913 0h4.972v37.531H44.74v-37.531zm14.914 0h4.971v37.531h-4.97v-37.531zM72.58 0h4.972v145.576H72.58V0zm14.914 48.524h4.972v97.052h-4.972V48.524zm16.903 47.322h4.97v50.033h-4.97V95.846zm14.913 0h4.972v50.033h-4.972V95.846zm12.926-37.437h4.97v87.167h-4.97V58.41zM147.149 0h4.972v145.576h-4.972V0zm14.914 0h4.971v145.576h-4.97V0zm14.914 0h4.971v145.576h-4.971V0zm14.914 0h4.971v145.576h-4.971V0zm16.902 134.364h4.971V146h-4.97v-11.636zm14.914-25.977h4.971v37.531h-4.971v-37.531zm14.914 0h4.971v37.531h-4.971v-37.531zM251.546 0h4.971v145.576h-4.971V0zm16.902 134.364h4.972V146h-4.972v-11.636zm14.914 0h4.971V146h-4.97v-11.636zm14.914 0h4.971V146h-4.971v-11.636zm14.914 0h4.97V146h-4.97v-11.636zm12.925-39.112h4.971v50.324h-4.971V95.252zm14.914-28.756H346v79.08h-4.971v-79.08z" id="a"/></defs><g fill="none" fill-rule="evenodd"><mask id="b" fill="#fff"><use xlink:href="#a"/></mask><use fill="#C6D6DB" fill-rule="nonzero" xlink:href="#a"/><g mask="url(#b)"><path fill="#375DD5" d="M-1 0h347v146H-1z"/><path fill="#687089" d="M-1 0h347v146H-1z"/></g></g></svg>